<?xml version="1.0" encoding="utf-8"?>
<svg version="1.1" id="Layer_1" xmlns="http://www.w3.org/2000/svg" xmlns:xlink="http://www.w3.org/1999/xlink" x="0px" y="0px"
	 viewBox="0 0 512 512" style="enable-background:new 0 0 512 512;" xml:space="preserve">
<style type="text/css">
	.st0{fill:#90CC8A;}
</style>
<g>
	<g>
		<path class="st0" d="M89.1388,246.1346c20.2178-6.8416,40.4357-13.6832,60.6535-20.5249
			c21.1818-7.1678,42.6926-13.6445,55.7362-33.2785c10.7814-16.2288,11.376-37.8711,18.0579-55.8798
			c0.4779-1.288,0.9206-2.8475,1.5726-4.0274c-0.1043,0.1888-2.1475,4.4633-0.6255,1.6945c1.0371-1.8866,1.892-3.8778,2.9359-5.7663
			c1.022-1.8487,2.1023-3.6635,3.2587-5.4314c0.5105-0.7805,1.0466-1.5409,1.568-2.3139c2.2322-3.3092,0.0918,0.8199-0.9224,1.1665
			c1.137-0.3885,2.8724-3.2681,3.7625-4.1803c1.3105-1.343,2.7081-2.5786,4.0826-3.8529c3.6104-3.3472-0.5843,0.7697-1.2399,0.8709
			c0.6077-0.0938,1.7654-1.2216,2.2971-1.5681c1.8124-1.1814,3.6975-2.1873,5.5968-3.2165c4.4087-2.389-4.6787,1.3109,0.1559,0.0174
			c1.1898-0.3183,4.4666-0.6263,5.3306-1.3902c-0.0754,0.0667-5.7214,0.3985-2.8901,0.3529
			c0.8356-0.0135,1.6774-0.1272,2.5155-0.1462c1.1269-0.0256,2.241,0.0489,3.3675,0.079c3.9895,0.1067-1.4837,0.2079-2.3579-0.333
			c1.1552,0.7148,3.559,0.9127,4.9095,1.278c4.6667,1.2624-4.5714-2.6268-0.4176-0.1878c1.2094,0.7102,2.9778,2.2517,4.2966,2.5964
			c-0.1453-0.038-4.2277-3.7984-2.3562-1.7794c0.6833,0.7372,1.5772,1.6815,2.3742,2.2866
			c2.0597,1.5638-1.6737-2.0505-1.7094-2.4794c0.0326,0.3921,1.7077,2.6231,1.7916,2.7352
			c2.6807,3.5811-1.2507-5.0076-0.1493-0.6208c1.3225,5.2674,2.7465,10.4922,5.3771,15.3111
			c3.7782,6.9212,9.7701,11.9697,16.9476,14.9986c9.2467,3.9021,18.3675,2.4316,27.8152,0.2638
			c4.5855-1.0521,9.2025-1.9609,13.8446-2.7262c1.0528-0.1736,2.4211-0.6118,3.485-0.5499
			c-0.2863-0.0166-4.859,0.5723-1.5538,0.2032c3.1185-0.3483,6.2308-0.6998,9.3595-0.9536
			c9.7683-0.7924,19.588-0.9595,29.3773-0.4877c2.2404,0.108,4.4807,0.245,6.7165,0.4261c0.7417,0.0601,3.656,0.6162,4.0545,0.381
			c-0.1018,0.0601-5.4948-0.9066-2.3183-0.3274c4.3675,0.7963,8.5632,1.7673,12.8233,3.0165
			c4.9047,1.4383-3.6672-2.2393,0.7415,0.301c0.7889,0.4546,4.4173,3.2447,5.1315,3.1019
			c-0.4063,0.0812-3.7707-3.5574-2.0732-1.4942c0.6903,0.8391,1.5753,1.6966,2.3838,2.4268
			c2.0492,1.8507-1.6652-2.0186-1.7026-2.2573c0.1228,0.7831,1.3522,2.2192,1.7924,2.9144
			c0.4624,0.7301,1.6422,3.5619,0.0447-0.2366c-1.6618-3.9515-0.2348-0.2633,0.0161,0.6557
			c1.6488,6.0387-0.1351-4.4999,0.0339-0.0226c0.036,0.9537-0.3274,3.9316,0.2142-0.447c0.5569-4.5024,0.0309-0.7524-0.3849,0.2785
			c-1.1383,2.8219,1.2348-3.0855,1.1306-2.8495c-1.8918,4.2865,2.4404-1.9315,0.2772-0.3313
			c-0.7216,0.5338-1.4261,1.3582-2.0797,1.9833c-3.0234,2.8918,0.1104-0.9105,1.0386-0.7505
			c-0.9395-0.1619-4.731,3.2685-5.6177,3.8816c-5.2422,3.6242-10.3198,7.5261-15.2522,11.5576
			c-16.5169,13.5-30.3687,30.953-40.4274,49.7209c-5.3462,9.9752-4.8175,21.7909,2.1707,30.836
			c7.0542,9.1305,18.0292,12.3036,29.1839,9.9498c4.4027-0.929,8.6744-2.2382,13.0112-3.4225
			c0.5481-0.1497,6.0801-1.9649,6.5167-1.591c-3.2585,0.3268-3.9544,0.4171-2.0878,0.2709
			c0.8727-0.0771,1.7474-0.1115,2.6242-0.1032c0.8717-0.0055,1.7413,0.0301,2.6089,0.1069c2.188,0.1746,1.1614,0.0285-3.0796-0.4383
			c1.2899,0.6072,3.639,0.9176,5.0364,1.303c5.4295,1.4974-5.0279-3.0628-0.2214-0.0838c1.4829,0.9191,3.0099,1.8022,4.5054,2.7019
			c4.4142,2.6556-3.8107-4.096-0.1252,0.0495c0.4567,0.5137,3.7287,3.769,3.661,3.8166c-0.2933,0.2064-3.7987-5.7836-0.182,0.0685
			c0.7729,1.2507,1.3847,2.588,2.1176,3.8564c0.9112,1.8995,0.5547,1.0359-1.0695-2.5909c0.3081,0.8252,0.58,1.6619,0.8156,2.51
			c0.2646,0.8578,0.4926,1.7255,0.6838,2.6032c0.4461,2.4051,0.4872,2.3589,0.1234-0.1386
			c0.6042-4.5539-0.0096,1.3401,0.0008,2.5764c0.0184,0.8985,0.0036,1.7968-0.0446,2.6946
			c-0.2081,2.429-0.1532,2.3926,0.1648-0.1089c0.3858-2.4952,0.3772-2.5374-0.0257-0.1265c-0.1231,0.589-0.2462,1.178-0.3692,1.767
			c-0.4012,1.7709-1.0282,3.4702-1.4657,5.2245c-1.3862,5.5589,2.6217-4.5792,0.0481,0.0852
			c-0.8802,1.5954-1.6686,3.231-2.6241,4.7861c-1.5337,2.4962-4.1916,3.985,0.1477,0.3297c-1.292,1.0883-2.4318,2.8557-3.63,4.0716
			c-0.8727,0.8856-3.452,2.6191-4.0143,3.6809c2.8529-2.1379,3.4451-2.6172,1.7767-1.4379c-0.7834,0.557-1.5842,1.088-2.4025,1.593
			c-1.639,1.0246-3.3299,1.8871-5.0217,2.8152c-4.8246,2.6466,5.2848-1.4789-0.4313,0.218c-3.736,1.1091-7.3655,2.126-11.1746,2.962
			c-5.5018,1.2074,5.7878-0.0573-0.3046-0.0481c-1.6129,0.0024-3.2284,0.1632-4.8446,0.1686
			c-1.9412,0.0066-3.8769-0.0628-5.8127-0.208c-7.4039-0.5556,4.4725,0.8765-1.2484-0.1625
			c-9.9984-1.8159-19.5376-0.3354-27.0132,7.1402c-6.5417,6.5417-10.4976,17.9467-7.1402,27.0132
			c1.6822,4.5426,3.1034,9.1467,4.1291,13.8852c0.2244,1.0367,1.3578,7.5984,0.8251,4.0021
			c-0.5335-3.6016-0.0229,0.1209,0.0149,0.7417c0.0904,1.4852,0.221,2.9658,0.2802,4.4532
			c0.1035,2.6012,0.0957,5.2057-0.0115,7.8064c-0.0489,1.1874-0.9542,7.5096-0.1625,4.0863c0.8163-3.53-0.0091,0.1067-0.1292,0.7262
			c-0.2835,1.4624-0.5306,2.9233-0.86,4.3781c-0.2758,1.2178-2.2956,7.4532-0.7059,3.4468
			c1.4298-3.6036,0.3411-0.9697-0.1641-0.1814c1.0114-1.5781,2.0816-2.8615,3.5538-4.0048c1.4946-1.1607,3.0345-1.9075,4.8582-2.472
			c-4.5719,1.4153,1.4756-0.2921,2.1317-0.0039c-0.701-0.3078-4.8069-0.3441-5.5486-0.1058
			c0.2401-0.0771,5.5892,1.1384,2.759,0.2917c-1.2041-0.3602-2.5006-0.5423-3.7233-0.8497
			c-4.4587-1.1209-8.7741-2.5883-13.103-4.119c-5.0392-1.7819,3.6543,1.8416-1.1708-0.4581
			c-2.5472-1.2141-5.0822-2.4349-7.5619-3.7838c-4.0241-2.1891-7.9239-4.606-11.6781-7.2307
			c-0.457-0.3195-2.4093-1.3334-2.5779-1.847c0.0223,0.0678,3.85,3.0188,1.5172,1.1764c-3.0947-2.4442-6.1216-5.0876-9.4285-7.2345
			c-13.9619-9.0642-30.4064-8.3633-44.8129-0.8159c-7.9263,4.1525-14.8778,10.4952-22.3439,15.4384
			c-8.0936,5.3586-16.4272,10.3544-24.9681,14.967c-4.7449,2.5626-9.5543,5.0057-14.4206,7.3297
			c-2.2709,1.0845-4.5536,2.1443-6.8491,3.1759c-0.9832,0.4419-1.9805,0.8572-2.9585,1.31
			c-3.6495,1.6897,4.4054-1.7752,0.6783-0.2642c-10.3422,4.1927-20.807,7.9572-31.4954,11.1752
			c11.7151,8.9242,23.4301,17.8484,35.1452,26.7726c-4.0076-42.3142-13.5315-83.4296-33.1046-121.3869
			c-11.9215-23.119-28.038-43.4716-44.9645-63.0906c-2.9098-3.3727-5.7159-6.8261-8.588-10.2284
			c-1.2704-1.5049,5.0128,6.9274,2.0033,2.5534c-0.4548-0.6611-0.9396-1.3012-1.3895-1.9662
			c-1.0243-1.5142-1.9771-3.0676-2.8231-4.6887c-14.5353,11.2152-29.0707,22.4304-43.6061,33.6456
			c11.4263,12.7368,22.5641,25.7322,33.3271,39.0352c2.7925,3.4516,5.5586,6.9246,8.2968,10.4194
			c0.5864,0.7484,1.4766,1.592,1.9044,2.4391c-2.3063-4.5667-1.6901-2.2027-0.5541-0.7072c1.4606,1.923,2.9236,3.8439,4.3712,5.7767
			c5.5323,7.3866,10.9244,14.8799,16.1129,22.5123c5.1403,7.5616,10.0887,15.2586,14.7193,23.1437
			c4.0382,6.8763,7.2192,14.3427,11.4169,21.0918c8.5634,13.7681,24.6051,23.8337,41.2258,19.2567
			c17.4166-4.7961,25.3957-22.2777,23.635-39.1202c-1.1244-10.7562-3.301-20.9523-7.0806-31.0768
			c-2.1159-5.6679-4.5244-11.2253-6.8836-16.7941c-0.7804-1.8422-1.567-3.6816-2.3551-5.5205
			c-0.5256-1.2265-1.0488-2.4541-1.5749-3.6804c-1.5328-3.5732,1.8853,4.7195,0.4814,1.1014
			c-3.2446-8.3618-6.1898-16.5784-7.9794-25.39c-0.1525-0.751-0.8273-4.1292-0.0687-0.1949
			c0.7752,4.0203,0.1091,0.0549,0.0424-1.0943c-0.1022-1.7613-0.1421-3.5247-0.1581-5.2887
			c-0.0383-4.2249,0.0999-8.4489,0.1122-12.6736c0.0666-22.8314-6.2315-49.1298-29.4958-58.9474
			c-20.5327-8.6649-39.8054,5.1621-47.0179,24.1823c-4.3057,11.3546-2.7795,24.7484,1.7567,35.7922
			c4.8827,11.8873,11.7592,22.0685,18.7863,32.7671c6.7063,10.2101,13.4126,20.4203,20.1188,30.6304
			c13.8596,21.1009,27.7193,42.2018,41.5789,63.3028c6.2103,9.455,16.2348,14.791,27.6641,13.2552
			c10.5558-1.4184,20.4584-9.1825,23.0821-19.8876c4.0609-16.5689,2.0422-33.2259-4.389-48.8867
			c-6.0282-14.6796-13.9952-28.3694-20.6898-42.7342c-1.719-3.6884,1.6287,4.281,0.2033,0.4695
			c-0.6505-1.7393-1.3657-3.4552-2.0121-5.1968c-1.2927-3.4829-2.4918-7.0017-3.5957-10.549
			c-2.0976-6.741-3.8491-13.5891-5.2523-20.5079c-0.665-3.279-1.2233-6.5737-1.7596-9.8755
			c-1.1582-7.1299,0.3078,3.8267-0.0413-0.3524c-0.1545-1.8499-0.4023-3.6939-0.5645-5.5442
			c-0.6496-7.4091-0.8579-14.8343-0.7393-22.2691c-17.246,4.6711-34.492,9.3421-51.738,14.0132
			c34.6851,47.7889,51.9569,108.8294,99.7365,146.5592c9.4611,7.4711,22.5098,11.5207,33.6456,4.3413
			c10.2315-6.5964,16.3572-19.2198,12.7594-31.3546c-16.2197-54.7061-33.5823-109.0664-52.0766-163.0459
			c-15.4683,9.0044-30.9366,18.0088-46.4049,27.0132c2.899,3.272,5.6396,6.6503,8.4317,10.0107
			c1.2609,1.5947,0.842,1.0419-1.2568-1.6583c0.8106,1.0642,1.6128,2.1346,2.4065,3.2114c1.1904,1.6142,2.3616,3.2427,3.5156,4.8831
			c4.6204,6.5677,8.9533,13.3349,13.0759,20.225c8.824,14.7478,16.6689,30.053,24.3619,45.4124
			c15.2547,30.4564,30.064,61.3169,50.3551,88.8363c5.988,8.1212,13.374,13.7512,23.9737,13.7512
			c8.8074,0,20.2957-5.0796,23.9737-13.7512c7.3702-17.3766,11.953-35.414,10.75-54.4816
			c-1.1884-18.8354-6.3006-36.9257-15.8505-53.2647c-7.9912,13.9258-15.9825,27.8517-23.9737,41.7775
			c23.0454-2.7473,46.259-3.776,69.455-2.8885c15.3145,0.5859,30.6633,1.3531,42.7516-10.1472
			c12.8913-12.2641,14.1509-32.0529,5.257-46.9312c-15.2824-25.5653-50.5507-21.8844-76.2338-23.3115
			c-23.3825-1.2993-46.7649-2.5985-70.1474-3.8978c4.6711,17.246,9.3421,34.492,14.0132,51.7381
			c25.6926-15.2834,51.3852-30.5668,77.0778-45.8503c11.9232-7.0926,16.7053-22.0042,11.3599-34.6707
			c-5.8133-13.7755-18.787-18.0386-32.754-16.0756c-41.8861,5.8869-83.2014,15.1481-123.5925,27.7043
			c7.1314,16.9154,14.2627,33.8308,21.3941,50.7463c48.5307-28.5495,97.0614-57.099,145.592-85.6486
			c11.9536-7.032,16.6848-22.0529,11.3599-34.6707c-5.7641-13.6588-18.8282-18.2134-32.754-16.0756
			c-52.6955,8.0898-112.8768,10.6318-154.1357,48.7232c15.4683,9.0044,30.9366,18.0088,46.405,27.0132
			c6.1537-15.0155,12.5687-29.9523,18.4699-45.0683c8.4835-21.7305-1.0536-45.7477-23.9669-52.8015
			c-16.8612-5.1908-36.1831,0.9086-46.8922,14.7698c-12.341,15.9735-11.8883,35.4569-8.0698,54.3232
			c8.9242-11.7151,17.8484-23.4301,26.7726-35.1452c-14.0866,1.7799-28.1733,3.5598-42.2599,5.3396
			c-18.093,2.2861-35.3142,3.9015-49.5827,16.5249c-25.3753,22.4496-21.0688,57.8832-11.1875,86.5299
			c4.7253,13.6991,19.2553,24.213,34.1534,19.3917c13.5716-4.392,24.4624-19.4532,19.3917-34.1534
			c-1.8341-5.3173-3.6703-10.6415-5.0451-16.1002c-0.3592-1.4261-2.3267-9.664-0.8851-2.4939
			c-0.5586-2.7783-0.2227-5.6597-0.3335-8.4595c0.2065-2.4182,0.1614-2.3727-0.1353,0.1365
			c-0.3789,2.5014-0.3478,2.5539,0.0931,0.1574c0.2595-1.1659,0.5711-2.3177,0.935-3.4553c1.0152-2.8233,0.7448-2.26-0.8112,1.6899
			c-0.3305-0.0733,2.8305-4.3342,2.7005-4.5145c-2.6179,3.2757-2.9233,3.8388-0.9162,1.6891
			c-3.4326,2.4248-3.9184,2.8089-1.4575,1.1523c2.743-1.4411,2.4156-1.3813-0.9822,0.1796
			c0.9855-0.3461,1.9855-0.6417,2.9999-0.8869c2.2253-0.5847,4.9162-1.4343,7.227-1.4052
			c-7.8404-0.0988,2.0355-0.2263,3.8356-0.4537c2.3478-0.2966,4.6955-0.5933,7.0433-0.8899
			c11.7389-1.4832,23.4777-2.9665,35.2166-4.4497c9.0862-1.1481,16.0265-3.4648,21.803-10.9416
			c5.628-7.2845,6.7769-15.2738,4.9696-24.2036c-0.257-1.2139-0.4921-2.4321-0.7056-3.6544
			c-0.3896-2.4634-0.4012-2.4769-0.0348-0.0405c0.3148,2.4427,0.356,2.4228,0.1239-0.0598
			c-0.0745-1.243-0.0981-2.4869-0.0707-3.7318c-0.3618-5.0813-2.1443,5.0699-0.0556,0.1722
			c2.4143-5.6608-3.4544,5.2651-0.0042,0.0798c-2.8598,3.349-3.3611,4.0995-1.5039,2.2515
			c-1.1655,0.9469-2.3309,1.8938-3.4964,2.8407c2.52-1.2919,1.5164-0.8729-3.0107,1.2572c2.0685-0.4702,1.6999-0.4729-1.1057-0.0082
			c-2.8247,0.2898-3.1851,0.3828-1.0811,0.2791c2.9258,0.1668,1.7299-0.0073-3.5877-0.5223
			c0.3959,0.1168,0.7917,0.2335,1.1876,0.3503c-3.1768-0.8116-5.9008-2.3994-8.172-4.7634
			c-3.0253-3.1176-5.088-7.8206-5.2001-12.1853c-0.1572-6.1194-0.6463-0.6015-1.4444,1.4433
			c-2.0649,5.2901-4.311,10.5192-6.4645,15.7739c-4.0018,9.7648-8.0036,19.5296-12.0054,29.2944
			c-4.4239,10.7946,2.8693,26.1292,12.7594,31.3546c11.255,5.9465,24.2565,4.3269,33.6456-4.3413
			c0.9537-0.8805,1.9362-1.7289,2.8904-2.608c4.6374-4.2721-3.3117,2.1877-0.3311,0.1365c2.1124-1.4538,4.1814-2.9431,6.366-4.2918
			c2.4497-1.5124,4.9637-2.9193,7.5299-4.2243c1.144-0.5818,2.3105-1.1156,3.4601-1.6854c5.7212-2.836-3.9199,1.4269-0.4278,0.1114
			c10.7791-4.0605,21.7119-7.1935,32.9988-9.5145c25.4781-5.2393,51.4453-8.4209,77.1464-12.3665
			c-7.1314-16.9154-14.2627-33.8309-21.3941-50.7463c-48.5307,28.5495-97.0613,57.099-145.592,85.6486
			c-11.9536,7.032-16.6848,22.0529-11.36,34.6707c5.1854,12.2874,19.4478,20.212,32.754,16.0755
			c40.3911-12.5562,81.7064-21.8174,123.5925-27.7043c-7.1313-16.9154-14.2627-33.8309-21.394-50.7463
			c-25.6926,15.2834-51.3852,30.5668-77.0778,45.8503c-10.1748,6.0525-16.5361,19.684-12.7594,31.3546
			c3.9256,12.1305,14.0801,19.6782,26.7726,20.3835c18.5447,1.0305,37.0894,2.0609,55.6341,3.0914
			c9.2724,0.5152,18.5447,1.0305,27.8171,1.5457c4.4346,0.2464,8.8692,0.4928,13.3038,0.7392
			c2.2818,0.1268,4.5733,0.3079,6.8573,0.3886c2.587,0.2431,2.7065,0.2108,0.3586-0.0966c-2.332-0.3736-2.2303-0.3263,0.3052,0.1417
			c0.6435,0.1723,1.287,0.3447,1.9305,0.517c-2.2231-0.6147-4.0874-1.8004-5.5928-3.5568
			c-2.2763-2.4833-3.3568-5.4989-3.6801-8.8024c-0.7351-7.5112,3.5635-15.8136,10.8765-18.836
			c1.8332-0.7576,8.1489-0.8864,3.7478-1.2975c-9.1072-0.8506-18.436-0.869-27.5791-0.9166
			c-18.4071-0.0957-36.7861,1.0224-55.0613,3.2011c-10.0576,1.199-18.5816,4.537-23.9737,13.7512
			c-5.0155,8.5708-5.0097,19.4552,0,28.0264c0.9705,1.6604,3,7.7629,4.5651,8.7443c-1.0178-0.6382-1.8212-4.9934-0.5646-1.1536
			c0.5114,1.5629,1.0857,3.1017,1.5658,4.6763c0.8637,2.8323,1.5858,5.7061,2.1639,8.6103
			c0.1858,0.9335,1.1701,6.6457,0.4412,2.1576c-0.7387-4.549,0.0679,1.7375,0.0977,2.2035
			c0.1892,2.9569,0.2274,5.9224,0.1245,8.8832c-0.0573,1.6473-0.1938,3.2816-0.3019,4.9262
			c-0.2605,3.9629-0.4544-0.2953,0.2634-1.5058c-1.3277,2.239-1.3694,7.041-2.0901,9.6347
			c-0.5936,2.1363-4.0912,11.4169-1.1646,4.5168c15.9825,0,31.9649,0,47.9474,0c-20.6956-28.0681-35.6812-59.6048-51.2647-90.6507
			c-16.3275-32.5281-34.043-64.1217-58.3079-91.5083c-7.8049-8.809-23.8065-10.6847-33.6456-4.3413
			c-9.9244,6.3984-16.836,19.4561-12.7594,31.3546c18.4944,53.9796,35.8569,108.3398,52.0766,163.0459
			c15.4683-9.0044,30.9366-18.0088,46.4049-27.0132c-5.5476-4.3808-10.7754-9.1125-15.6479-14.2357
			c-2.3098-2.4286-4.5432-4.9292-6.7005-7.4942c-1.1358-1.3504-2.2238-3.0064-3.4691-4.2513
			c4.9213,4.9195,1.0655,1.3773-0.1019-0.2104c-8.2456-11.214-15.3799-23.2017-22.1398-35.3542
			c-13.8401-24.8808-26.2187-50.6614-42.9945-73.775c-7.0465-9.7086-18.9173-16.7842-31.3546-12.7594
			c-11.8022,3.8194-20.182,14.1389-20.3835,26.7726c-0.4693,29.4223,4.4291,59.5282,15.1278,86.9841
			c5.567,14.2865,12.585,27.5569,19.4902,41.1927c0.6541,1.2916,1.3026,2.5866,1.9305,3.8912
			c0.1517,0.3152,2.4508,6.349,1.2653,2.5724c-1.2101-3.8551,0.6691,1.8471,0.9372,2.6188c0.4574,1.3162,0.8904,2.6443,1.2742,3.984
			c0.4709,1.6435,0.7234,3.3732,1.2112,5.0052c0.9803,3.2801-0.0665-6.4997-0.1032-0.3358c-0.008,1.3475,0.0065,2.6943-0.004,4.0424
			c-0.0513,6.5549,1.2889-5.7752-0.3054,0.7296c16.9154-2.2108,33.8309-4.4216,50.7463-6.6323
			c-15.8715-24.164-31.7431-48.3279-47.6146-72.4919c-7.8231-11.9104-15.7464-23.7615-23.472-35.7354
			c-1.5682-2.4306-3.086-4.8842-4.445-7.4398c-0.4064-0.7641-2.0402-4.7699-0.7203-1.0921c1.3466,3.7522-0.111-0.4376-0.3479-1.1745
			c-0.1007-0.3133-1.0208-4.4985-1.1623-4.511c0.6246,0.0552,0.3536,6.553,0.5816,2.0623c-0.1853,1.319-0.3707,2.6379-0.556,3.9568
			c0.6802-2.2351,0.6088-2.2149-0.2141,0.0606c-1.2955,2.1051-2.6333,5.721-5.1511,6.8157
			c-4.6711,1.2635-9.3421,2.5271-14.0132,3.7906c-3.1531-0.9434-6.3063-1.8868-9.4594-2.8302
			c-3.2323-2.6288-4.0933-3.1917-2.583-1.6886c2.229,2.2832-3.6168-5.7828-0.9148-1.0782c2.0129,3.5047-1.0097-1.5555-0.7661-2.2567
			c-0.166,0.478,0.9903,3.2251,1.1584,3.9305c1.1637,4.8856-0.5772,0.1054-0.0014-1.547c-0.3755,1.0776,0.2795,3.2306,0.3378,4.3577
			c0.1392,2.6898,0.1533,5.3835,0.1367,8.0763c-0.0868,14.1115,0.1906,27.9828,4.0656,41.7021
			c1.7074,6.0452,3.9605,11.9152,6.3516,17.7184c1.8029,4.3757,3.6626,8.7291,5.5239,13.0803
			c0.656,1.5336,1.3131,3.0667,1.9712,4.5994c2.0774,4.8378-1.3501-3.4245-0.0915-0.1851
			c2.2711,5.8454,4.5796,11.6427,6.2227,17.707c0.8089,2.9855,0.9248,6.7054,2.0432,9.5527
			c-0.6031-1.5354-0.4473-5.3146-0.3557-1.5364c0.2925,12.0723-0.7808-9.7141,10.2364-14.5588
			c4.6711-1.2635,9.3421-2.5271,14.0132-3.7906c3.5248-0.3867,9.7941,2.3402,12.2932,4.8369
			c1.5654,1.5641,2.9224,4.8636,1.007,1.0637c-1.4303-2.8376-2.8367-5.6875-4.325-8.4962
			c-3.2031-6.045-6.6413-11.9641-10.2309-17.7871c-7.7622-12.5919-16.2248-24.7466-25.0356-36.6241
			c-18.1529-24.4711-37.5393-48.0116-57.8833-70.6888c-9.2364-10.2957-26.0869-10.1811-36.4551-2.1707
			c-11.1992,8.6525-13.6333,23.3937-7.1509,35.8162c8.4106,16.1176,23.2698,29.4407,34.5394,43.5828
			c3.128,3.9254-3.9854-5.3031-1.4677-1.9092c0.8563,1.1543,1.7326,2.2937,2.585,3.4512c1.8989,2.5784,3.7505,5.1916,5.5501,7.8403
			c3.7048,5.4525,7.1865,11.0557,10.4236,16.7984c3.6289,6.4378,6.9491,13.0477,9.9592,19.7968
			c0.401,0.8992,0.7819,1.8076,1.1866,2.705c1.4212,3.1509-2.2647-5.7472-1.0498-2.4739c0.6243,1.6819,1.3455,3.3312,1.9903,5.006
			c1.638,4.2546,3.1594,8.5539,4.5716,12.8886c3.303,10.1385,5.9986,20.4698,8.1668,30.9089
			c1.201,5.7825,2.2395,11.5977,3.1309,17.4358c0.2066,1.3536,0.3937,2.71,0.5962,4.0642c0.5232,3.4993-0.6167-5.5529-0.0402-0.1005
			c0.3803,3.5966,0.802,7.1857,1.1431,10.7868c0.8559,9.0366,3.6163,16.1436,10.9416,21.803
			c6.8136,5.2642,15.7314,7.5203,24.2036,4.9695c21.5332-6.483,42.5925-15.0094,62.5858-25.3059
			c8.9492-4.6088,17.6874-9.6278,26.1722-15.0445c8.5808-5.4779,16.4658-12.1707,25.1637-17.4101
			c1.1915-0.7177,4.6601-1.5842,1.0156-0.7053c-1.7975,0.4335-3.282,1.1869-5.2466,1.2033c-2.4769,0.0208-4.6489-0.7024-6.9082-1.67
			c1.0576,0.4529,2.5562,2.4007,0.3221-0.0023c-2.6517-2.8521,0.1992,0.1523,1.0462,0.8167
			c2.1385,1.6776,4.2859,3.3509,6.4528,4.9915c2.2482,1.7021,4.536,3.3478,6.8874,4.9047
			c9.9257,6.5721,20.8985,11.5475,32.0478,15.6484c24.8861,9.1534,56.8828,10.5985,71.6616-16.1324
			c7.0349-12.7242,8.8842-29.1584,8.8108-43.4308c-0.0715-13.9023-2.4711-28.1454-7.3016-41.1897
			c-11.3845,11.3845-22.769,22.769-34.1534,34.1534c24.8615,4.5154,51.7518,2.035,73.2388-12.3871
			c22.0576-14.805,35.6861-37.5949,38.0753-64.0786c2.351-26.0601-10.9993-50.2346-31.8422-65.0653
			c-10.23-7.2791-22.3963-11.0787-34.833-12.0182c-13.2914-1.004-25.5639,3.9716-38.3018,6.6595
			c10.4515,13.5953,20.903,27.1905,31.3546,40.7858c2.0616-3.8466,4.2458-7.6169,6.6279-11.2745
			c1.2832-1.9703,2.6419-3.8799,3.9855-5.808c0.3811-0.547,2.5154-3.2355,0.2462-0.4095c-2.6656,3.3198,1.4415-1.7292,1.5937-1.9112
			c5.8763-7.0272,12.5007-12.9846,19.2914-19.0793c2.2957-2.0604-1.4509,1.2506-1.6698,1.2238
			c0.3296,0.0404,2.7082-2.0092,3.2396-2.3895c1.6001-1.1451,3.234-2.2404,4.854-3.3567c5.3469-3.6841,10.95-7.4705,15.4873-12.1496
			c9.3866-9.68,14.9724-22.3597,15.0268-35.9154c0.1024-25.4904-17.4386-46.5729-40.066-56.1217
			c-20.5885-8.6884-44.5449-9.4273-66.6179-8.2076c-12.6272,0.6978-25.292,2.3371-37.7084,4.7152
			c-2.3099,0.4424-4.6137,0.9208-6.9088,1.4349c-14.6986,3.2922,12.5533,3.3656,17.9226,13.0653
			c2.0775,3.753,0.0993-0.7582-0.2642-2.191c-0.7866-3.1003-1.9509-5.8566-3.1974-8.8105
			c-9.5516-22.6339-31.9543-35.4171-55.6854-37.7052c-21.9781-2.1191-44.2758,9.1244-59.499,24.3073
			c-15.926,15.8839-25.25,37.0826-31.073,58.5067c-1.42,5.2244-2.6257,10.5007-3.8185,15.7804
			c-0.6008,2.6595-1.1973,5.3209-1.9645,7.9384c-0.0599,0.2043-0.9597,2.888-0.9171,2.9133
			c0.4102,0.2443,1.7768-6.0793-0.1071-0.2082c-0.85,2.6489,0.7457-1.4232,1.5506-1.6205
			c-0.2026,0.0496-2.5482,2.4763-2.5468,2.6382c-0.0044-0.493,5.6573-3.6227,1.2696-0.9829
			c-1.06,0.6378-2.0947,1.3054-3.1811,1.8999c-0.8169,0.447-1.6987,0.8053-2.5028,1.2703
			c-2.9346,1.6972,5.3834-1.9593,0.5552-0.2051c-2.0695,0.7519-4.1352,1.5057-6.2187,2.2188
			c-24.3718,8.3423-48.8027,16.5164-73.2035,24.7735c-13.7289,4.6458-24.1942,19.3133-19.3917,34.1534
			C59.3996,240.3833,74.4087,251.1192,89.1388,246.1346L89.1388,246.1346z"/>
	</g>
	<g>
		<path d="M78.0557,216.3559c21.7105-11.2538,43.4211-22.5076,65.1316-33.7614c5.4276-2.8134,10.8553-5.6269,16.2829-8.4404
			c5.3139-2.7545,10.8139-5.5102,14.1185-10.7512c5.2353-8.3032,2.5864-17.8874,3.9473-27.0604
			c2.5031-16.8713,12.0932-31.7953,24.844-42.8178c11.7571-10.1634,32.9937-21.6333,48.5668-14.3886
			c15.4706,7.1971,20.2847,28.9646,23.8772,43.8585c3.3501,13.8893,24.7738,8.008,21.4181-5.9047
			c-4.2782-17.7369-10.2406-37.5676-24.2815-50.1762c-18.1633-16.3105-42.2623-13.5041-63.0026-3.8537
			c-18.1399,8.4404-33.8286,23.379-43.4145,40.9149c-4.6309,8.4715-8.0716,17.7721-9.5676,27.324
			c-0.7912,5.0517-1.2368,10.0892-1.1456,15.202c0.0185,1.0351,0.2699,2.564,0.0937,3.6371
			c-0.8682,5.2874-0.0736,1.4691,0.0456,1.2907c-1.0595,1.5861-6.044,3.2011-7.7955,4.109
			c-26.7763,13.8797-53.5526,27.7594-80.3289,41.639C54.1502,203.7575,65.3701,222.9316,78.0557,216.3559L78.0557,216.3559z"/>
	</g>
	<g>
		<path d="M288.7882,109.7404c35.5984-6.9663,81.6565-24.7122,114.2997,0.5405c14.0887,10.899,19.2993,29.2563,16.8148,46.4635
			c-2.7789,19.246-14.4978,35.7578-28.0277,49.0949c-10.1957,10.0503,5.5121,25.7544,15.7059,15.7059
			c25.8997-25.5305,44.4659-63.7457,30.2702-100.0399c-13.4433-34.3705-50.5347-48.0236-85.2214-46.0097
			c-23.7142,1.3768-46.5523,8.288-69.7462,12.8268C268.869,91.0648,274.8019,112.4774,288.7882,109.7404L288.7882,109.7404z"/>
	</g>
	<g>
		<path d="M418.145,209.0198c9.6894,9.8321,12.2228,21.1641,18.1554,33.6682c3.7798,7.9669,7.3442,16.2492,6.4105,25.2654
			c-0.8952,8.6447-4.7847,17.1546-8.1031,25.1028c-5.9138,14.1643-13.8322,30.2747-28.7133,36.8248
			c-15.8553,6.9788-32.3256-4.0635-45.2985-12.2678c-3.7369,6.393-7.4737,12.786-11.2106,19.179
			c3.1992,1.5359,6.3985,3.0719,9.5977,4.6078c5.4041,2.5945,11.9952,1.4861,15.1948-3.9842
			c2.84-4.8556,1.446-12.5878-3.9842-15.1948c-3.1992-1.5359-6.3985-3.0719-9.5977-4.6078
			c-12.7831-6.137-23.4358,11.4476-11.2106,19.179c18.5636,11.7399,40.1523,22.8513,62.4138,14.5069
			c20.597-7.7205,33.0395-26.3125,41.4359-45.7062c4.3583-10.0667,9.1677-20.5547,10.9128-31.4646
			c1.943-12.1467-0.1885-23.233-4.9586-34.4342c-6.9371-16.2896-12.7041-33.56-25.3382-46.3802
			C423.8018,183.1168,408.0979,198.8247,418.145,209.0198L418.145,209.0198z"/>
	</g>
	<g>
		<path d="M381.0316,343.4919c0.4602,22.0555,0.085,51.8896-26.7042,57.2443c-12.2612,2.4508-27.2159,1.0408-39.0318-2.9327
			c-13.7862-4.6362-19.1175-17.0228-23.8423-29.7078c-2.4236-6.5069-9.7422-10.6557-16.3143-6.6371
			c-39.2638,24.0083-80.5504,44.5966-123.4816,61.1941c-5.591,2.1615-9.46,7.4633-7.7567,13.6614
			c1.4682,5.3423,8.0365,9.9313,13.6614,7.7567c44.7383-17.2961,87.8612-38.4083,128.7874-63.4331
			c-5.4381-2.2124-10.8762-4.4248-16.3143-6.6371c6.6263,17.7902,14.7106,34.6877,33.0582,42.7448
			c16.5977,7.2886,37.4376,8.8615,55.2169,5.7619c17.972-3.1332,31.8597-14.6865,38.7271-31.4423
			c6.1206-14.9337,6.5379-31.65,6.2057-47.5728C402.9453,329.2189,380.7328,329.1695,381.0316,343.4919L381.0316,343.4919z"/>
	</g>
	<g>
		<path d="M123.5096,277.9339c36.2381-22.658,74.5247-41.8833,114.4611-57.1196c4.9784-1.8993,8.4044-6.6504,6.8948-12.1434
			c-1.31-4.7669-7.1357-8.8054-12.1434-6.8948c-41.5427,15.8492-81.4722,35.5345-119.1774,59.1099
			C102.7951,267.6071,112.6945,284.6961,123.5096,277.9339L123.5096,277.9339z"/>
	</g>
	<g>
		<path d="M197.3915,323.9931c11.9184-5.7145,24.2185-10.3661,36.8885-14.1241c12.1532-3.6048,6.9786-22.665-5.2486-19.0383
			c-14.2935,4.2396-28.1628,9.6694-41.6049,16.1145C175.9741,312.4363,185.9778,329.4657,197.3915,323.9931L197.3915,323.9931z"/>
	</g>
	<g>
		<path d="M321.5652,199.6559c10.6984-3.7661,19.6081,4.9119,19.6057,15.6062c-0.0028,12.1816-9.4782,20.6793-19.6535,25.6075
			c-11.4324,5.5371-1.4326,22.5683,9.965,17.048c18.6212-9.0189,32.1351-27.8366,28.8488-49.1279
			c-3.1157-20.1859-23.8902-35.2563-44.0146-28.1721C304.4114,184.8086,309.5363,203.8904,321.5652,199.6559L321.5652,199.6559z"/>
	</g>
	<g>
		<path d="M279.0233,332.0724c16.2548,8.2679,36.32,11.187,52.8375,1.7984c15.1689-8.6221,23.2434-25.2827,20.5128-42.381
			c-0.8414-5.269-7.4101-8.1956-12.1434-6.8948c-5.6094,1.5415-7.7388,6.8589-6.8948,12.1434
			c1.3967,8.7457-5.468,17.43-13.0246,20.9229c-9.963,4.6052-21.945,2.133-31.3224-2.6367
			C277.687,309.2762,267.683,326.3043,279.0233,332.0724L279.0233,332.0724z"/>
	</g>
	<g>
		<path d="M256.3682,123.1269c-26.5674-0.7714-46.2925,25.3182-37.5868,50.6418c4.1065,11.9453,23.1849,6.8132,19.0383-5.2486
			c-4.5948-13.3656,4.2033-26.0662,18.5485-25.6496C269.0774,143.2394,269.0666,123.4956,256.3682,123.1269L256.3682,123.1269z"/>
	</g>
</g>
</svg>
